<?xml version="1.0" encoding="utf-8"?>
<!-- Svg Vector Icons : http://www.onlinewebfonts.com/icon -->
<!DOCTYPE svg PUBLIC "-//W3C//DTD SVG 1.1//EN" "http://www.w3.org/Graphics/SVG/1.1/DTD/svg11.dtd">
<svg version="1.1" xmlns="http://www.w3.org/2000/svg" xmlns:xlink="http://www.w3.org/1999/xlink" x="0px" y="0px" viewBox="0 0 1000 1000" enable-background="new 0 0 1000 1000" xml:space="preserve">
<metadata> Svg Vector Icons : http://www.onlinewebfonts.com/icon </metadata>
<g><path d="M339.7,707.5H10v-55l209.9-291.6H25.1v-77.9h314.1v53.6L133.9,629.9h205.9V707.5L339.7,707.5z"/><path d="M636.7,360.8H492.2V465h132.7v77.6H492.2v164.9H400V282.9h236.7L636.7,360.8L636.7,360.8z"/><path d="M683,696.5V592.8c20.3,12.7,40.6,22.1,60.8,28.4c20.1,6.2,39.2,9.3,57.2,9.3c21.9,0,39.1-3.1,51.8-9.3c12.6-6.2,18.9-15.7,18.9-28.4c0-8.1-2.9-14.9-8.6-20.3c-5.7-5.4-13.1-10.1-22.1-14.2c-9-4.1-18.8-7.7-29.5-10.9c-10.7-3.3-20.9-6.9-30.9-10.9c-15.9-6.2-29.9-12.9-42-20.1c-12.1-7.1-22.3-15.5-30.5-24.9c-8.2-9.5-14.5-20.4-18.7-32.8c-4.3-12.4-6.5-27.2-6.5-44.2c0-23.2,4.9-43.2,14.7-60c9.7-16.7,22.8-30.4,39.1-41.1c16.3-10.7,34.9-18.5,55.8-23.5c20.9-5,42.8-7.5,65.4-7.5c17.7,0,35.7,1.4,53.9,4.3c18.2,2.9,36.2,6.9,53.9,12.3v98.9c-15.6-9.5-32.4-16.5-50.2-21.3c-17.9-4.7-35.4-7.1-52.6-7.1c-8.1,0-15.7,0.7-22.9,2.2c-7.1,1.5-13.5,3.7-18.9,6.5c-5.5,2.9-9.7,6.5-12.9,10.9c-3.1,4.5-4.7,9.5-4.7,15.2c0,7.5,2.3,14.1,7,19.4c4.7,5.4,10.8,10.1,18.3,14c7.5,3.9,15.9,7.4,25.2,10.5c9.2,3.1,18.4,6.3,27.6,9.5c16.4,5.9,31.3,12.4,44.6,19.5c13.3,7,24.7,15.3,34.2,24.7c9.5,9.5,16.8,20.5,21.9,33.2s7.6,27.8,7.6,45.4c0,24.5-5.1,45.6-15.4,63c-10.3,17.4-23.9,31.6-41,42.6c-17.1,10.9-36.7,18.9-59,23.9c-22.3,5-45.4,7.5-69.3,7.5C761.3,717.6,720.5,710.5,683,696.5L683,696.5z"/></g>
</svg>